HIERARCHY
ROOT root
{
	OFFSET	0	260	24
	CHANNELS 6  Xposition Yposition Zposition Xrotation Yrotation Zrotation
	JOINT spine_3
	{
		OFFSET	0	81.6	10.2
		CHANNELS 3  Xrotation Yrotation Zrotation
		JOINT spine_4
		{
			OFFSET	0	110.4	14.6
			CHANNELS 3  Xrotation Yrotation Zrotation
			JOINT neck_1
			{
				OFFSET	0	71.8	-50.3
				CHANNELS 3  Xrotation Yrotation Zrotation
				JOINT neck_2
				{
					OFFSET	0	86.2	-25.8
					CHANNELS 3  Xrotation Yrotation Zrotation
					JOINT head_ee
					{
						OFFSET	0	179.8	-8.7
						CHANNELS 3  Xrotation Yrotation Zrotation
						End Site
						{
							OFFSET	1	0	0
						}
					}
				}
			}
			JOINT left_clavicle
			{
				OFFSET	-43.2	22.4	-70.8
				CHANNELS 3  Xrotation Yrotation Zrotation
				JOINT left_shoulder
				{
					OFFSET	-93.9	-5.79999	48.7
					CHANNELS 3  Xrotation Yrotation Zrotation
					JOINT left_elbow
					{
						OFFSET	-291.4	-30.8	15.2
						CHANNELS 3  Xrotation Yrotation Zrotation
						JOINT left_lowarm_twist
						{
							OFFSET	-110.7	-3.89999	13.6
							CHANNELS 3  Xrotation Yrotation Zrotation
							JOINT left_hand
							{
								OFFSET	-110.7	-3.89999	13.6
								CHANNELS 3  Xrotation Yrotation Zrotation
								JOINT left_ee
								{
									OFFSET	-80.8	-5.10001	12.1
									CHANNELS 3  Xrotation Yrotation Zrotation
									End Site
									{
										OFFSET	1	0	0
									}
								}
							}
						}
					}
				}
			}
			JOINT right_clavicle
			{
				OFFSET	43.2	22.4	-70.8
				CHANNELS 3  Xrotation Yrotation Zrotation
				JOINT right_shoulder
				{
					OFFSET	93.9	-5.79999	48.7
					CHANNELS 3  Xrotation Yrotation Zrotation
					JOINT right_elbow
					{
						OFFSET	291.4	-30.8	15.2
						CHANNELS 3  Xrotation Yrotation Zrotation
						JOINT right_lowarm_twist
						{
							OFFSET	110.7	-3.89999	13.6
							CHANNELS 3  Xrotation Yrotation Zrotation
							JOINT right_hand
							{
								OFFSET	110.7	-3.89999	13.6
								CHANNELS 3  Xrotation Yrotation Zrotation
								JOINT right_ee
								{
									OFFSET	80.8	-5.10001	12.1
									CHANNELS 3  Xrotation Yrotation Zrotation
									End Site
									{
										OFFSET	1	0	0
									}
								}
							}
						}
					}
				}
			}
		}
	}
	JOINT spine_2
	{
		OFFSET	0	-124.9	-9.1
		CHANNELS 3  Xrotation Yrotation Zrotation
		JOINT spine_1
		{
			OFFSET	0	-112	10
			CHANNELS 3  Xrotation Yrotation Zrotation
			JOINT left_hip
			{
				OFFSET	-82.8	-137.5	0.300001
				CHANNELS 3  Xrotation Yrotation Zrotation
				JOINT left_knee
				{
					OFFSET	-28.2	-396.7	2.2
					CHANNELS 3  Xrotation Yrotation Zrotation
					JOINT left_ankle
					{
						OFFSET	-11.7	-411.3	35.4
						CHANNELS 3  Xrotation Yrotation Zrotation
						JOINT left_toes
						{
							OFFSET	0	-60	-88.6
							CHANNELS 3  Xrotation Yrotation Zrotation
							JOINT left_foot_ee
							{
								OFFSET	-22.5	-16.5	-42.2
								CHANNELS 3  Xrotation Yrotation Zrotation
								End Site
								{
									OFFSET	1	0	0
								}
							}
						}
					}
				}
			}
			JOINT right_hip
			{
				OFFSET	82.8	-137.5	0.300001
				CHANNELS 3  Xrotation Yrotation Zrotation
				JOINT right_knee
				{
					OFFSET	28.2	-396.7	2.2
					CHANNELS 3  Xrotation Yrotation Zrotation
					JOINT right_ankle
					{
						OFFSET	11.7	-411.3	35.4
						CHANNELS 3  Xrotation Yrotation Zrotation
						JOINT right_toes
						{
							OFFSET	0	-60	-88.6
							CHANNELS 3  Xrotation Yrotation Zrotation
							JOINT right_foot_ee
							{
								OFFSET	22.5	-16.5	-42.2
								CHANNELS 3  Xrotation Yrotation Zrotation
								End Site
								{
									OFFSET	1	0	0
								}
							}
						}
					}
				}
			}
		}
	}
}
MOTION
Frames: 5
Frame Time: 0.02
855.157051687 614.879 -1745.83435093 4.94673003835 45.3477872698 -0.59402185939 0.881195 0.158196 -2.98657 0.868887 -0.315248 -2.9741 -15.0742 11.0424 5.36867 -15.2761 17.9637 8.77734 -0.0 0.0 -0.0 3.40725 2.23385 6.69736 -2.14154 -26.909 61.9583 1.2157 -31.0561 0.337795 9.28128 0.233382 -1.16133 1.60225 2.57846 11.7895 -0.0 0.0 -0.0 8.58092 -1.22706 -16.7208 -29.4565 28.8384 -53.3697 0.4347 12.1526 -0.0462743 -63.8239 5.76178 -5.20422 -5.98804 -14.9036 33.0931 0.0 0.0 0.0 -0.878483 0.382621 2.9662 -0.883197 0.570511 2.93588 16.459 -19.2551 -9.36198 -28.2382 0.107503 4.28852 17.5174 10.8482 -2.42289 -6.54048 0.0 0.0 -0.0 0.0 -0.0 18.4549 24.7462 -14.1347 -47.3801 1.00173 -6.99873 32.2036 -13.6562 4.15686 -12.5206 0.0 0.0 0.0 0.0 0.0 
829.42991113 616.244 -1758.859505 2.71116876562 37.1209876873 1.37455651486 0.610822 0.0652809 -2.79875 0.600091 -0.377376 -2.77398 -11.8151 10.165 4.71094 -11.8917 16.2352 7.37246 -0.0 0.0 -0.0 4.46619 -1.1076 8.57324 -1.38519 -25.3203 57.6783 1.08087 -28.1653 0.271156 10.4947 0.249893 -1.31545 0.726945 -0.479524 4.66357 -0.0 0.0 -0.0 8.59546 0.664079 -16.8024 -33.8574 33.9043 -51.3902 0.378463 10.6187 -0.0351714 -68.1595 6.31139 -5.28195 -5.91999 -15.2063 32.3361 0.0 0.0 0.0 -0.608373 0.46619 2.76045 -0.612384 0.640834 2.72523 17.4671 -12.506 -8.22418 -28.4656 0.0997736 4.32255 21.332 14.0277 -2.91627 -6.23189 0.0 0.0 -0.0 0.0 -0.0 26.3444 26.7079 -12.7699 -48.1688 1.06645 -7.10145 31.5741 -15.2245 4.10719 -12.8011 0.0 0.0 0.0 0.0 0.0 
829.852047596 616.244 -1760.02013101 2.70001298462 36.8073071731 1.39310874809 0.610822 0.0652809 -2.79875 0.600091 -0.377376 -2.77398 -11.8151 10.165 4.71094 -11.8917 16.2352 7.37246 -0.0 0.0 -0.0 4.46619 -1.1076 8.57324 -1.38519 -25.3203 57.6783 1.08087 -28.1653 0.271156 10.4947 0.249893 -1.31545 0.726945 -0.479524 4.66357 -0.0 0.0 -0.0 8.59546 0.664079 -16.8024 -33.8574 33.9043 -51.3902 0.378463 10.6187 -0.0351714 -68.1595 6.31139 -5.28195 -5.91999 -15.2063 32.3361 0.0 0.0 0.0 -0.608373 0.46619 2.76045 -0.612384 0.640834 2.72523 17.4671 -12.506 -8.22418 -28.4656 0.0997736 4.32255 21.332 14.0277 -2.91627 -6.23189 0.0 0.0 -0.0 0.0 -0.0 26.3444 26.7079 -12.7699 -48.1688 1.06645 -7.10145 31.5741 -15.2245 4.10719 -12.8011 0.0 0.0 0.0 0.0 0.0 
831.023139744 616.244 -1763.14108256 2.67075143106 35.9606267459 1.44243623942 0.610822 0.0652809 -2.79875 0.600091 -0.377376 -2.77398 -11.8151 10.165 4.71094 -11.8917 16.2352 7.37246 -0.0 0.0 -0.0 4.46619 -1.1076 8.57324 -1.38519 -25.3203 57.6783 1.08087 -28.1653 0.271156 10.4947 0.249893 -1.31545 0.726945 -0.479524 4.66357 -0.0 0.0 -0.0 8.59546 0.664079 -16.8024 -33.8574 33.9043 -51.3902 0.378463 10.6187 -0.0351714 -68.1595 6.31139 -5.28195 -5.91999 -15.2063 32.3361 0.0 0.0 0.0 -0.608373 0.46619 2.76045 -0.612384 0.640834 2.72523 17.4671 -12.506 -8.22418 -28.4656 0.0997736 4.32255 21.332 14.0277 -2.91627 -6.23189 0.0 0.0 -0.0 0.0 -0.0 26.3444 26.7079 -12.7699 -48.1688 1.06645 -7.10145 31.5741 -15.2245 4.10719 -12.8011 0.0 0.0 0.0 0.0 0.0 
805.955520111 612.228 -1781.75672126 1.83087358695 28.7519077651 1.70051303772 0.210741 0.0290035 -2.37829 0.203016 -0.346861 -2.35305 -11.5879 8.98949 5.02736 -11.6118 13.7649 7.31079 -0.0 0.0 -0.0 4.37492 -0.953686 8.40131 2.7131 -25.0553 52.2966 1.09729 -28.5262 0.278953 10.1934 0.246098 -1.27714 0.401536 -3.29691 1.30534 -0.0 0.0 -0.0 8.64962 2.25923 -16.9435 -35.4369 33.4195 -49.3848 0.51679 14.3596 -0.0651013 -69.9884 6.54455 -5.30215 -5.5534 -14.3391 30.2775 0.0 0.0 0.0 -0.208927 0.454684 2.33462 -0.211758 0.602282 2.30099 17.1266 -13.9097 -5.82066 -30.4671 0.0258924 4.62082 22.4308 13.4981 -3.04754 -4.93125 0.0 0.0 -0.0 0.0 -0.0 30.0095 23.2494 -11.7001 -42.7801 0.653046 -6.38303 29.3645 -13.8778 3.85405 -12.8789 0.0 0.0 0.0 0.0 0.0 
